<?xml version="1.0" standalone="no"?>
<svg viewBox="0 0 200 200" xmlns="http://www.w3.org/2000/svg">
  <path fill="#FF0066" d="M44,-77.9C56.8,-68.8,66.7,-56.5,73.2,-43C79.8,-29.5,82.9,-14.7,83.7,0.5C84.5,15.7,83,31.4,75.9,43.8C68.7,56.2,55.9,65.4,42.3,73.5C28.7,81.5,14.4,88.4,-0.3,88.9C-14.9,89.4,-29.9,83.5,-41.6,74.4C-53.4,65.3,-62.1,53.1,-67.2,40.2C-72.2,27.2,-73.7,13.6,-76.3,-1.5C-78.9,-16.6,-82.7,-33.3,-77.4,-45.8C-72.2,-58.4,-57.8,-66.8,-43.4,-75C-29,-83.2,-14.5,-91,0.6,-92C15.6,-93,31.2,-87.1,44,-77.9Z" transform="translate(100 100)" />
</svg>
