<?xml version="1.0" standalone="no"?>
<svg xmlns:xlink="http://www.w3.org/1999/xlink" id="wave" style="transform:rotate(0deg); transition: 0.3s" viewBox="0 0 1440 320" version="1.1" xmlns="http://www.w3.org/2000/svg"><defs><linearGradient id="sw-gradient-0" x1="0" x2="0" y1="1" y2="0"><stop stop-color="rgba(62, 108.112, 243, 1)" offset="0%"/><stop stop-color="rgba(216.615, 216.615, 216.615, 1)" offset="100%"/></linearGradient></defs><path style="transform:translate(0, 0px); opacity:1" fill="url(#sw-gradient-0)" d="M0,96L34.3,90.7C68.6,85,137,75,206,85.3C274.3,96,343,128,411,160C480,192,549,224,617,213.3C685.7,203,754,149,823,154.7C891.4,160,960,224,1029,234.7C1097.1,245,1166,203,1234,202.7C1302.9,203,1371,245,1440,266.7C1508.6,288,1577,288,1646,288C1714.3,288,1783,288,1851,272C1920,256,1989,224,2057,208C2125.7,192,2194,192,2263,192C2331.4,192,2400,192,2469,176C2537.1,160,2606,128,2674,101.3C2742.9,75,2811,53,2880,74.7C2948.6,96,3017,160,3086,154.7C3154.3,149,3223,75,3291,53.3C3360,32,3429,64,3497,69.3C3565.7,75,3634,53,3703,53.3C3771.4,53,3840,75,3909,69.3C3977.1,64,4046,32,4114,53.3C4182.9,75,4251,149,4320,149.3C4388.6,149,4457,75,4526,74.7C4594.3,75,4663,149,4731,170.7C4800,192,4869,160,4903,144L4937.1,128L4937.1,320L4902.9,320C4868.6,320,4800,320,4731,320C4662.9,320,4594,320,4526,320C4457.1,320,4389,320,4320,320C4251.4,320,4183,320,4114,320C4045.7,320,3977,320,3909,320C3840,320,3771,320,3703,320C3634.3,320,3566,320,3497,320C3428.6,320,3360,320,3291,320C3222.9,320,3154,320,3086,320C3017.1,320,2949,320,2880,320C2811.4,320,2743,320,2674,320C2605.7,320,2537,320,2469,320C2400,320,2331,320,2263,320C2194.3,320,2126,320,2057,320C1988.6,320,1920,320,1851,320C1782.9,320,1714,320,1646,320C1577.1,320,1509,320,1440,320C1371.4,320,1303,320,1234,320C1165.7,320,1097,320,1029,320C960,320,891,320,823,320C754.3,320,686,320,617,320C548.6,320,480,320,411,320C342.9,320,274,320,206,320C137.1,320,69,320,34,320L0,320Z"/><defs><linearGradient id="sw-gradient-1" x1="0" x2="0" y1="1" y2="0"><stop stop-color="rgba(62, 175.556, 243, 1)" offset="0%"/><stop stop-color="rgba(255, 11, 98.303, 1)" offset="100%"/></linearGradient></defs><path style="transform:translate(0, 50px); opacity:0.9" fill="url(#sw-gradient-1)" d="M0,160L34.3,170.7C68.6,181,137,203,206,186.7C274.3,171,343,117,411,85.3C480,53,549,43,617,53.3C685.7,64,754,96,823,133.3C891.4,171,960,213,1029,240C1097.1,267,1166,277,1234,250.7C1302.9,224,1371,160,1440,117.3C1508.6,75,1577,53,1646,85.3C1714.3,117,1783,203,1851,224C1920,245,1989,203,2057,165.3C2125.7,128,2194,96,2263,90.7C2331.4,85,2400,107,2469,106.7C2537.1,107,2606,85,2674,90.7C2742.9,96,2811,128,2880,165.3C2948.6,203,3017,245,3086,229.3C3154.3,213,3223,139,3291,117.3C3360,96,3429,128,3497,133.3C3565.7,139,3634,117,3703,106.7C3771.4,96,3840,96,3909,106.7C3977.1,117,4046,139,4114,170.7C4182.9,203,4251,245,4320,240C4388.6,235,4457,181,4526,154.7C4594.3,128,4663,128,4731,154.7C4800,181,4869,235,4903,261.3L4937.1,288L4937.1,320L4902.9,320C4868.6,320,4800,320,4731,320C4662.9,320,4594,320,4526,320C4457.1,320,4389,320,4320,320C4251.4,320,4183,320,4114,320C4045.7,320,3977,320,3909,320C3840,320,3771,320,3703,320C3634.3,320,3566,320,3497,320C3428.6,320,3360,320,3291,320C3222.9,320,3154,320,3086,320C3017.1,320,2949,320,2880,320C2811.4,320,2743,320,2674,320C2605.7,320,2537,320,2469,320C2400,320,2331,320,2263,320C2194.3,320,2126,320,2057,320C1988.6,320,1920,320,1851,320C1782.9,320,1714,320,1646,320C1577.1,320,1509,320,1440,320C1371.4,320,1303,320,1234,320C1165.7,320,1097,320,1029,320C960,320,891,320,823,320C754.3,320,686,320,617,320C548.6,320,480,320,411,320C342.9,320,274,320,206,320C137.1,320,69,320,34,320L0,320Z"/></svg>